<svg xmlns="http://www.w3.org/2000/svg" viewBox="0 0 1280 768" role="img" aria-labelledby="title desc">
  <title id="title">Eli Hair Salon</title>
  <desc id="desc">Salonansicht mit Empfang, Spiegeln, Pflanzen und schwarzen Coiffeur-Stühlen</desc>
  <defs>
    <linearGradient id="wall" x1="0" x2="1">
      <stop offset="0" stop-color="#d6d6d0"/>
      <stop offset="0.2" stop-color="#777c78"/>
      <stop offset="1" stop-color="#3f4542"/>
    </linearGradient>
    <linearGradient id="chair" x1="0" x2="1" y1="0" y2="1">
      <stop offset="0" stop-color="#171717"/>
      <stop offset="1" stop-color="#020202"/>
    </linearGradient>
    <filter id="soft" x="-10%" y="-10%" width="120%" height="120%">
      <feGaussianBlur stdDeviation="0.7"/>
    </filter>
  </defs>
  <rect width="1280" height="768" fill="url(#wall)"/>
  <rect y="590" width="1280" height="178" fill="#565a57"/>
  <g opacity=".32" stroke="#444946" stroke-width="8">
    <path d="M-80 768L160 590M0 768L240 590M80 768L320 590M160 768L400 590M240 768L480 590M320 768L560 590M400 768L640 590M480 768L720 590M560 768L800 590M640 768L880 590M720 768L960 590M800 768L1040 590M880 768L1120 590M960 768L1200 590"/>
  </g>
  <rect x="30" y="20" width="260" height="360" fill="#ecebe4"/>
  <rect x="60" y="50" width="205" height="300" fill="#c8c5bd"/>
  <rect x="85" y="395" width="370" height="190" fill="#070707" rx="3"/>
  <rect x="85" y="505" width="370" height="9" fill="#eeeeea"/>
  <text x="190" y="360" font-family="Georgia, serif" font-size="82" fill="#777c78" opacity=".42">EH</text>
  <g stroke="#d8d8d2" stroke-width="9" fill="#333936">
    <rect x="540" y="58" width="210" height="580"/>
    <rect x="815" y="58" width="210" height="580"/>
    <rect x="1040" y="58" width="210" height="580"/>
  </g>
  <g fill="#111">
    <rect x="705" y="160" width="92" height="15"/>
    <rect x="705" y="285" width="92" height="15"/>
    <rect x="930" y="160" width="92" height="15"/>
    <rect x="930" y="285" width="92" height="15"/>
  </g>
  <g>
    <rect x="718" y="222" width="12" height="62" fill="#d8e2e8"/>
    <rect x="738" y="238" width="12" height="46" fill="#8bb5c6"/>
    <rect x="758" y="216" width="12" height="68" fill="#dfd27e"/>
    <rect x="778" y="232" width="12" height="52" fill="#7870aa"/>
    <rect x="943" y="222" width="12" height="62" fill="#d8e2e8"/>
    <rect x="963" y="238" width="12" height="46" fill="#8bb5c6"/>
    <rect x="983" y="216" width="12" height="68" fill="#dfd27e"/>
    <rect x="1003" y="232" width="12" height="52" fill="#7870aa"/>
  </g>
  <g fill="url(#chair)" filter="url(#soft)">
    <rect x="500" y="395" width="165" height="245" rx="18"/>
    <rect x="455" y="512" width="260" height="108" rx="18"/>
    <ellipse cx="585" cy="658" rx="73" ry="18" fill="none" stroke="#d8d8d2" stroke-width="8"/>
    <rect x="918" y="395" width="175" height="245" rx="18"/>
    <rect x="875" y="512" width="275" height="108" rx="18"/>
    <ellipse cx="1006" cy="658" rx="78" ry="18" fill="none" stroke="#d8d8d2" stroke-width="8"/>
  </g>
  <g stroke="#527c5c" stroke-width="8" stroke-linecap="round" opacity=".88">
    <path d="M78 522C40 455 40 390 82 310"/>
    <path d="M78 522C96 450 142 383 196 320"/>
    <path d="M78 522C118 486 177 457 246 437"/>
    <path d="M78 522C58 456 88 398 132 350"/>
    <path d="M644 168C620 112 625 58 655 8"/>
    <path d="M644 168C668 105 702 55 735 12"/>
    <path d="M1038 150C1015 96 1022 50 1050 10"/>
    <path d="M1038 150C1068 102 1098 58 1126 18"/>
  </g>
  <rect x="58" y="610" width="44" height="92" fill="#eeeeea"/>
</svg>
